<svg width="92" height="92" viewBox="0 0 92 92" fill="none" xmlns="http://www.w3.org/2000/svg">
    <path d="M46 24H34V12V0H46H58V12V24H46ZM46 20H54V12V4H46H38V12V20H46Z" fill="white"/>
    <path d="M12 60C10.1667 60 10 59.3333 10 52V44H27H44V38C44 32.6666 44.2222 32 46 32C47.7778 32 48 32.6666 48 38V44H65H82V52C82 59.3333 81.8333 60 80 60C78.2222 60 78 59.3333 78 54V48H63H48V54C48 59.3333 47.7778 60 46 60C44.2222 60 44 59.3333 44 54V48H29H14V54C14 59.3333 13.7778 60 12 60Z" fill="white"/>
    <path d="M79.7997 91.9599C77.9849 91.9373 75.2682 91.2515 73.7626 90.4346C72.257 89.6177 70.3445 87.6331 69.5126 86.0243C68.6807 84.4156 68 81.7046 68 80C68 78.2954 68.6826 75.5806 69.5169 73.9673C70.3512 72.3539 72.3539 70.3513 73.9673 69.5169C75.5806 68.6826 78.2954 68 80 68C81.7046 68 84.4194 68.6826 86.0327 69.5169C87.6461 70.3513 89.6488 72.3539 90.4831 73.9673C91.3174 75.5806 92 78.2954 92 80C92 81.7046 91.3174 84.4193 90.4831 86.0327C89.6488 87.6461 87.6461 89.6488 86.0327 90.483C84.4194 91.3174 81.6145 91.982 79.7997 91.9599ZM81.5 87.3228C82.6 87.0303 84.3625 85.963 85.4167 84.9511C86.5006 83.9106 87.3333 81.7594 87.3333 80C87.3333 78.1677 86.4656 76.0212 85.2222 74.7778C83.9788 73.5344 81.8324 72.6667 80 72.6667C78.1677 72.6667 76.0212 73.5344 74.7778 74.7778C73.5672 75.9884 72.6667 78.1696 72.6667 79.8912C72.6667 81.5424 73.2886 83.6427 74.0486 84.5586C74.8087 85.4744 76.3462 86.5907 77.4653 87.0392C78.5844 87.4876 80.4 87.6154 81.5 87.3228Z" fill="white"/>
    <path d="M45.7997 91.9599C43.9849 91.9373 41.2682 91.2515 39.7626 90.4346C38.257 89.6177 36.3445 87.6331 35.5126 86.0243C34.6807 84.4156 34 81.7046 34 80C34 78.2954 34.6826 75.5806 35.5169 73.9673C36.3512 72.3539 38.3539 70.3513 39.9673 69.5169C41.5807 68.6826 44.2954 68 46 68C47.7046 68 50.4194 68.6826 52.0327 69.5169C53.6461 70.3513 55.6488 72.3539 56.4831 73.9673C57.3174 75.5806 58 78.2954 58 80C58 81.7046 57.3174 84.4193 56.4831 86.0327C55.6488 87.6461 53.6461 89.6488 52.0327 90.483C50.4194 91.3174 47.6145 91.982 45.7997 91.9599ZM47.5 87.3228C48.6 87.0303 50.3625 85.963 51.4167 84.9511C52.5006 83.9106 53.3333 81.7594 53.3333 80C53.3333 78.1677 52.4656 76.0212 51.2222 74.7778C49.9788 73.5344 47.8324 72.6667 46 72.6667C44.1677 72.6667 42.0212 73.5344 40.7778 74.7778C39.5672 75.9884 38.6667 78.1696 38.6667 79.8912C38.6667 81.5424 39.2886 83.6427 40.0486 84.5586C40.8087 85.4744 42.3462 86.5907 43.4653 87.0392C44.5844 87.4876 46.4 87.6154 47.5 87.3228Z" fill="white"/>
    <path d="M11.7996 91.9599C9.98484 91.9373 7.26815 91.2515 5.76256 90.4346C4.25697 89.6177 2.34448 87.6331 1.51257 86.0243C0.680651 84.4156 0 81.7046 0 80C0 78.2954 0.682609 75.5806 1.51692 73.9673C2.35123 72.3539 4.35389 70.3513 5.96726 69.5169C7.58064 68.6826 10.2954 68 12 68C13.7046 68 16.4194 68.6826 18.0327 69.5169C19.6461 70.3513 21.6488 72.3539 22.4831 73.9673C23.3174 75.5806 24 78.2954 24 80C24 81.7046 23.3174 84.4193 22.4831 86.0327C21.6488 87.6461 19.6461 89.6488 18.0327 90.483C16.4194 91.3174 13.6145 91.982 11.7996 91.9599ZM13.5 87.3228C14.6 87.0303 16.3625 85.963 17.4167 84.9511C18.5006 83.9106 19.3333 81.7594 19.3333 80C19.3333 78.1677 18.4656 76.0212 17.2222 74.7778C15.9788 73.5344 13.8324 72.6667 12 72.6667C10.1676 72.6667 8.02116 73.5344 6.77777 74.7778C5.56719 75.9884 4.66667 78.1696 4.66667 79.8912C4.66667 81.5424 5.28854 83.6427 6.04861 84.5586C6.80868 85.4744 8.34619 86.5907 9.46528 87.0392C10.5844 87.4876 12.4 87.6154 13.5 87.3228Z" fill="white"/>
</svg>