<svg width="88" height="88" viewBox="0 0 88 88" fill="none" xmlns="http://www.w3.org/2000/svg">
    <path d="M25 87.9523C22.525 87.9523 18.7 87.1189 16.5 86.1004C14.3 85.0818 11.2864 82.9542 9.80306 81.3724C8.31975 79.7905 6.40723 76.8232 5.55306 74.7784C4.69888 72.7335 4 69.3412 4 67.2399C4 65.1385 3.10002 61.6538 2.00003 59.4962C0.899999 57.3387 0 53.9637 0 51.9962C0 50.0289 0.808025 46.8342 1.79562 44.8971C3.51613 41.5225 3.51724 41.2104 1.82209 37.4357C0.848934 35.269 0.040871 31.5693 0.026471 29.2141C0.0113529 26.859 0.699109 23.259 1.55328 21.2142C2.40746 19.1693 4.31998 16.202 5.80329 14.6202C7.2866 13.0383 10.3002 10.9107 12.5002 9.89214C14.7002 8.87356 17.4969 8.03029 18.7151 8.01824C19.9332 8.0069 21.4244 7.07221 22.0289 5.94277C22.6333 4.81333 24.5617 3.01503 26.3141 1.94652C28.0665 0.878006 31.125 0.00204493 33.1107 3.98153e-06C35.3061 -0.00226374 38.1477 0.964337 40.3607 2.46613L44.0002 4.93601L47.6398 2.46613C49.8528 0.964337 52.6945 -0.00226374 54.8898 3.98153e-06C56.8756 0.00204493 59.934 0.878006 61.6864 1.94652C63.4388 3.01503 65.3671 4.81333 65.9716 5.94277C66.5761 7.07221 68.0672 8.00614 69.2854 8.01824C70.5036 8.02957 73.3003 8.87356 75.5002 9.89214C77.7002 10.9107 80.7139 13.0383 82.1972 14.6202C83.6805 16.202 85.593 19.1693 86.4472 21.2142C87.3014 23.259 87.9885 26.859 87.974 29.2141C87.9589 31.5693 87.1516 35.269 86.1784 37.4357C84.483 41.2104 84.4841 41.5225 86.2048 44.8971C87.1924 46.8342 88.0004 50.0289 88.0004 51.9962C88.0004 53.9637 87.1005 57.3387 86.0005 59.4962C84.9004 61.6538 84.0005 65.1385 84.0005 67.2399C84.0005 69.3412 83.3016 72.7335 82.4474 74.7784C81.5932 76.8232 79.6807 79.7905 78.1974 81.3724C76.7141 82.9542 73.7005 85.0818 71.5005 86.1004C69.3004 87.1189 65.4754 87.9523 63.0005 87.9523C60.5255 87.9523 56.6966 87.1328 54.4919 86.1313C52.2872 85.1297 49.0247 82.649 47.2419 80.6185L44.0005 76.9267L40.759 80.6185C38.9763 82.649 35.7138 85.1297 33.5091 86.1313C31.3043 87.1328 27.475 87.9523 25 87.9523ZM24.6848 83.9571C26.4365 83.9798 29.1365 83.5176 30.6848 82.9327C32.2331 82.3477 34.7928 80.6601 36.3731 79.1827C37.9533 77.7051 39.8658 75.0482 40.6231 73.2784C41.3908 71.4842 41.9999 66.6845 41.9999 62.4296C41.9999 55.2402 41.8264 54.6365 38.9999 51.9962C36.8969 50.0317 35.9999 48.2537 35.9999 46.0496C35.9999 44.0446 36.8892 42.016 38.4544 40.4508C40.0017 38.9035 42.0515 37.9963 43.9999 37.9963C45.9483 37.9963 47.9981 38.9035 49.5453 40.4508C51.1106 42.016 51.9999 44.0446 51.9999 46.0496C51.9999 48.2537 51.103 50.0317 48.9999 51.9962C46.1735 54.6365 45.9999 55.2402 45.9999 62.4296C45.9999 66.6266 46.6079 71.5156 47.351 73.294C48.094 75.0724 50.3344 77.9608 52.3296 79.7125C54.3247 81.4643 57.5418 83.1949 59.4785 83.5582C61.4153 83.9214 64.5845 83.9214 66.5213 83.5582C68.458 83.195 71.6751 81.4643 73.6702 79.7125C75.6654 77.9608 77.9058 75.0724 78.6488 73.294C79.3919 71.5156 79.9999 69.1572 79.9999 68.0531C79.9999 66.3116 79.6602 66.1749 77.4348 67.021C76.024 67.5574 73.9545 67.9963 72.836 67.9963C71.7175 67.9963 69.5412 69.3462 67.9999 70.9963C66.0353 73.0993 64.2574 73.9963 62.0533 73.9963C60.0483 73.9963 58.0197 73.1069 56.4544 71.5417C54.9072 69.9945 53.9999 67.9447 53.9999 65.9963C53.9999 64.0479 54.9072 61.9981 56.4544 60.4508C58.0197 58.8856 60.0483 57.9962 62.0533 57.9962C64.2574 57.9962 66.0353 58.8932 67.9999 60.9963C69.5412 62.6463 71.6802 63.9963 72.7533 63.9963C73.8262 63.9963 76.2266 62.9702 78.0874 61.7162C79.9483 60.4622 82.0575 58.3248 82.7745 56.9663C83.503 55.5861 83.8752 52.7882 83.618 50.6252C83.3647 48.4961 82.7726 46.3689 82.3019 45.8982C81.8275 45.4238 79.2658 46.1462 76.5535 47.5193C73.8626 48.8816 69.9372 49.9963 67.8305 49.9963C64.7545 49.9963 63.9999 49.6278 63.9999 48.1251C63.9999 46.6328 65.0205 46.1185 69.0412 45.5851C72.866 45.0778 75.0355 44.0555 78.0317 41.3486C80.5255 39.0956 82.3782 36.3048 83.0592 33.7759C83.6524 31.5732 83.8249 27.9092 83.4426 25.6336C82.9411 22.6479 81.5834 20.3299 78.5652 17.3061C75.0925 13.827 73.5004 12.9989 69.1836 12.4263C64.9103 11.8594 63.7617 11.2716 62.7331 9.12552C62.0448 7.68945 60.2323 5.91567 58.7052 5.18376C57.117 4.42257 54.7043 4.12193 53.068 4.48133C51.4946 4.82678 49.3731 6.03139 48.3536 7.15796C46.998 8.65594 46.4999 10.7619 46.4999 14.9963C46.4999 19.1963 47.0007 21.3396 48.3235 22.8013C49.3265 23.9096 51.2685 25.0978 52.6391 25.4419C54.5852 25.9303 55.7523 25.4022 57.9667 23.0318C59.9619 20.8959 61.7342 19.9963 63.9465 19.9963C65.9515 19.9963 67.9801 20.8856 69.5454 22.4508C71.0926 23.998 71.9999 26.0479 71.9999 27.9962C71.9999 29.9446 71.0926 31.9945 69.5454 33.5418C67.9801 35.1069 65.9515 35.9963 63.9465 35.9963C61.7424 35.9963 59.9644 35.0993 57.9999 32.9962C56.4586 31.3463 54.3158 29.9963 53.2382 29.9963C52.1607 29.9963 49.6412 28.8848 47.6395 27.5264L43.9999 25.0566L40.3603 27.5264C38.3586 28.8848 35.8392 29.9963 34.7616 29.9963C33.684 29.9963 31.5412 31.3463 29.9999 32.9962C28.0354 35.0993 26.2574 35.9963 24.0532 35.9963C22.0482 35.9963 20.0197 35.1069 18.4544 33.5418C16.9072 31.9945 15.9999 29.9446 15.9999 27.9962C15.9999 26.0479 16.9072 23.998 18.4544 22.4508C20.0197 20.8856 22.0482 19.9963 24.0532 19.9963C26.2656 19.9963 28.0379 20.8959 30.0331 23.0318C32.2475 25.4023 33.4146 25.9303 35.3607 25.4419C36.7313 25.0979 38.6733 23.9096 39.6763 22.8013C40.9991 21.3396 41.4999 19.1963 41.4999 14.9963C41.4999 10.7619 41.0018 8.65594 39.6462 7.15796C38.6267 6.03139 36.5052 4.82689 34.9318 4.48133C33.2955 4.1219 30.8828 4.42276 29.2946 5.18376C27.7676 5.91567 25.955 7.68945 25.2667 9.12552C24.2456 11.2559 23.0858 11.8599 18.9662 12.4064C15.1331 12.9149 12.9663 13.9353 9.96809 16.644C7.47436 18.8969 5.62152 21.6877 4.94056 24.2166C4.34744 26.4193 4.16384 30.0072 4.53257 32.1898C4.92167 34.4928 6.51772 37.6554 8.33583 39.7261C10.0589 41.6885 12.9237 43.9021 14.7022 44.6452C16.4806 45.3883 19.3001 45.9963 20.9678 45.9963C23.3332 45.9963 23.9999 46.436 23.9999 47.9962C23.9999 49.6482 23.3332 49.9963 20.1694 49.9963C18.0626 49.9963 14.1372 48.8816 11.4463 47.5193C8.73401 46.1462 6.17237 45.4238 5.69793 45.8982C5.22722 46.3689 4.63497 48.4961 4.38181 50.6252C4.12481 52.7882 4.4967 55.5861 5.22528 56.9663C5.94233 58.3248 8.05154 60.4622 9.91235 61.7162C11.7732 62.9702 14.1736 63.9963 15.2466 63.9963C16.3196 63.9963 18.4586 62.6463 19.9999 60.9963C21.9644 58.8932 23.7424 57.9962 25.9465 57.9962C27.9515 57.9962 29.9802 58.8856 31.5454 60.4508C33.0926 61.9981 33.9999 64.0479 33.9999 65.9963C33.9999 67.9447 33.0926 69.9945 31.5454 71.5417C29.9802 73.1069 27.9515 73.9963 25.9465 73.9963C23.7424 73.9963 21.9644 73.0993 19.9999 70.9963C18.4586 69.3462 16.2823 67.9963 15.1638 67.9963C14.0453 67.9963 11.9758 67.5574 10.565 67.021C8.36642 66.1851 7.99992 66.3187 7.99992 67.9559C7.99992 69.0065 8.47852 71.1329 9.06352 72.6812C9.64851 74.2295 11.336 76.7885 12.8135 78.368C14.291 79.9475 16.8499 81.8424 18.4999 82.5789C20.1499 83.3154 22.9331 83.9356 24.6848 83.9571ZM25.9999 69.9962C26.9652 69.9962 28.2973 69.3429 28.96 68.5443C29.6228 67.7457 30.0154 66.3315 29.8325 65.4015C29.6495 64.4715 28.7124 63.2147 27.7499 62.6086C26.4752 61.8058 25.5246 61.8058 24.2499 62.6086C23.2874 63.2147 22.3503 64.4715 22.1673 65.4015C21.9844 66.3315 22.3771 67.7457 23.0398 68.5443C23.7025 69.3429 25.0346 69.9962 25.9999 69.9962ZM61.9999 69.9962C62.9652 69.9962 64.2973 69.3429 64.9601 68.5443C65.6228 67.7457 66.0154 66.3315 65.8324 65.4015C65.6495 64.4715 64.7124 63.2147 63.7499 62.6086C62.4752 61.8058 61.5246 61.8058 60.2499 62.6086C59.2874 63.2147 58.3503 64.4715 58.1673 65.4015C57.9844 66.3315 58.3771 67.7457 59.0398 68.5443C59.7025 69.3429 61.0346 69.9962 61.9999 69.9962ZM43.9999 49.9963C44.9652 49.9963 46.2973 49.3429 46.96 48.5443C47.6228 47.7457 48.0154 46.3314 47.8325 45.4015C47.6495 44.4715 46.7124 43.2147 45.7499 42.6086C44.4752 41.8058 43.5246 41.8058 42.2499 42.6086C41.2874 43.2147 40.3502 44.4715 40.1673 45.4015C39.9844 46.3314 40.3771 47.7457 41.0398 48.5443C41.7025 49.3429 43.0346 49.9963 43.9999 49.9963ZM23.9999 31.9963C24.9652 31.9963 26.2973 31.3429 26.96 30.5443C27.6228 29.7457 28.0154 28.3315 27.8325 27.4015C27.6496 26.4715 26.7124 25.2147 25.7499 24.6086C24.4752 23.8058 23.5246 23.8058 22.2499 24.6086C21.2874 25.2147 20.3502 26.4715 20.1673 27.4015C19.9844 28.3315 20.3771 29.7457 21.0398 30.5443C21.7025 31.3429 23.0346 31.9963 23.9999 31.9963ZM63.9999 31.9963C64.9652 31.9963 66.2973 31.3429 66.96 30.5443C67.6228 29.7457 68.0154 28.3315 67.8325 27.4015C67.6495 26.4715 66.7124 25.2147 65.7499 24.6086C64.4751 23.8058 63.5246 23.8058 62.2499 24.6086C61.2874 25.2147 60.3502 26.4715 60.1673 27.4015C59.9844 28.3315 60.3771 29.7457 61.0398 30.5443C61.7025 31.3429 63.0346 31.9963 63.9999 31.9963Z" fill="white"/>
</svg>