<svg width="84" height="88" viewBox="0 0 84 88" fill="none" xmlns="http://www.w3.org/2000/svg">
    <path d="M42 88C40.1905 88 40 87.3334 40 81V74H36H32V56V38H36H40V28C40 18.6667 40.1333 18 42 18C43.8667 18 44 18.6667 44 28V38H48H52V56V74H48H44V81C44 87.3334 43.8095 88 42 88ZM42 70H48V56V42H42H36V56V70H42ZM74 84C72.2222 84 72 83.3333 72 78V72H68H64V47V22H68H72V11C72 0.666654 72.1212 0 74 0C75.8788 0 76 0.666654 76 11V22H80H84V47V72H80H76V78C76 83.3333 75.7778 84 74 84ZM74 68H80V47V26H74H68V47V68H74ZM10 78C8.14815 78 8 77.3334 8 69V60H4H0V34V8.00001H4C8 8.00001 8 8.00003 8 4C8 0.666687 8.33332 0 10 0C11.6667 0 12 0.666687 12 4C12 8.00003 12 8.00001 16 8.00001H20V34V60H16H12V69C12 77.3334 11.8518 78 10 78ZM10 56H16V34V12H10H4V34V56H10Z" fill="white"/>
</svg>