<svg width="88" height="80" viewBox="0 0 88 80" fill="none" xmlns="http://www.w3.org/2000/svg">
    <path d="M8.00001 40C6.05163 40 4.00177 39.0927 2.45454 37.5454C0.9073 35.9982 0 33.9484 0 32C0 30.0121 0.919219 27.9898 2.57602 26.333C4.70728 24.2018 5.8102 23.8454 8.96409 24.2684C12.5653 24.7514 13.1075 24.4399 18.7655 18.6398C24.3073 12.9588 24.719 12.2241 24.2747 8.80729C23.8843 5.80468 24.2725 4.63659 26.3518 2.55725C27.9917 0.917349 30.0179 0 32 0C33.988 0 36.0101 0.919197 37.6669 2.57599C39.7982 4.70727 40.1547 5.81019 39.7316 8.96409C39.2476 12.5726 39.5482 13.0902 45.3602 18.6574C51.1293 24.1836 51.7871 24.5352 56.2556 24.4825C60.6823 24.4303 61.4181 24.0236 66.8957 18.6032C72.4255 13.1311 72.7494 12.5502 72.2686 8.96605C71.8453 5.80992 72.2014 4.70768 74.3331 2.57599C75.9899 0.919197 78.0121 0 80 0C81.9484 0 83.9982 0.907311 85.5455 2.45454C87.0927 4.00176 88 6.05162 88 8.00001C88 9.98211 87.0826 12.0083 85.4427 13.6482C83.3634 15.7275 82.1953 16.1157 79.1927 15.7253C75.7759 15.281 75.0412 15.6913 69.3602 21.2345C63.56 26.8925 63.2486 27.4347 63.7316 31.0359C64.1547 34.1898 63.7982 35.2927 61.6669 37.424C60.0101 39.0808 57.988 40 56 40C54.012 40 51.9899 39.0808 50.3331 37.424C48.2018 35.2927 47.8453 34.1898 48.2684 31.0359C48.7524 27.4274 48.4518 26.9098 42.6398 21.3426C36.8707 15.8164 36.2129 15.4648 31.7444 15.5175C27.3177 15.5696 26.5819 15.9763 21.1043 21.3968C15.5745 26.8688 15.2507 27.4498 15.7314 31.0339C16.1547 34.1901 15.7986 35.2923 13.6669 37.424C12.0101 39.0808 9.98797 40 8.00001 40ZM8.00001 36C8.96532 36 10.2974 35.3466 10.9601 34.5481C11.6229 33.7494 12.0155 32.3352 11.8326 31.4052C11.6496 30.4752 10.7125 29.2184 9.75001 28.6123C8.47529 27.8095 7.52473 27.8095 6.25001 28.6123C5.28751 29.2184 4.35034 30.4752 4.16742 31.4052C3.98449 32.3352 4.37711 33.7494 5.03987 34.5481C5.70263 35.3466 7.03469 36 8.00001 36ZM56 36C56.9653 36 58.2974 35.3466 58.9601 34.5481C59.6229 33.7494 60.0155 32.3352 59.8326 31.4052C59.6497 30.4752 58.7125 29.2184 57.75 28.6123C56.4753 27.8095 55.5247 27.8095 54.25 28.6123C53.2875 29.2184 52.3504 30.4752 52.1674 31.4052C51.9845 32.3352 52.3771 33.7494 53.0399 34.5481C53.7026 35.3466 55.0347 36 56 36ZM32 12C32.9653 12 34.2974 11.3467 34.9601 10.5481C35.6229 9.74947 36.0155 8.3352 35.8326 7.40525C35.6497 6.47526 34.7125 5.21842 33.75 4.6123C32.4753 3.80953 31.5247 3.80953 30.25 4.6123C29.2875 5.21842 28.3503 6.47526 28.1674 7.40525C27.9845 8.3352 28.3771 9.74947 29.0399 10.5481C29.7026 11.3467 31.0347 12 32 12ZM80 12C80.9653 12 82.2974 11.3467 82.9601 10.5481C83.6229 9.74947 84.0155 8.3352 83.8326 7.40525C83.6497 6.47526 82.7125 5.21842 81.75 4.6123C80.4753 3.80953 79.5247 3.80953 78.25 4.6123C77.2875 5.21842 76.3503 6.47526 76.1674 7.40525C75.9845 8.3352 76.3772 9.74947 77.0399 10.5481C77.7026 11.3467 79.0347 12 80 12Z" fill="white"/>
    <path d="M80 80H72V56V32H80H88V56V80H80ZM80 76H84V56V35.9999H80H76V56V76H80Z" fill="white"/>
    <path d="M56 80H48V68V56H56H64V68V80H56ZM56 76H60V68V60H56H52V68V76H56Z" fill="white"/>
    <path d="M32 80H24V56V32H32H40V56V80H32ZM32 76H36V56V35.9999H32H28V56V76H32Z" fill="white"/>
    <path d="M8.00001 80H0V68V56H8.00001H16V68V80H8.00001ZM8.00001 76H12V68V60H8.00001H4V68V76H8.00001Z" fill="white"/>
</svg>